<svg viewBox="0 0 413 128" width="413" height="128" xmlns="http://www.w3.org/2000/svg">
    <path id="text" aria-label="EcoDriven" fill="#202020" d="m170.8 52.2h-18.9v7.7h15.9v8.5h-15.9v8.8h18.8v8.8h-22.8-6.9v-42.7h10.9 18.9zm20.4 22.2h9.8q0 3.7-1.7 6.5-1.7 2.7-4.8 4.2-3.1 1.5-7 1.5-4.8 0-8.2-2-3.3-2.1-5-5.7-1.7-3.7-1.7-8.4v-0.5q0-4.8 1.7-8.5 1.7-3.6 5-5.7 3.4-2 8.2-2 4 0 7.1 1.5 3 1.5 4.7 4.4 1.7 3 1.7 7.1h-9.8q0-2-1-3.3-1-1.2-3-1.2-1.7 0-2.6 0.9-0.9 1-1.2 2.6-0.3 1.6-0.3 4.2v0.5q0 2.5 0.3 4.2 0.3 1.6 1.2 2.5 0.9 0.9 2.7 0.9 1.9 0 2.9-0.9 1-1 1-2.8zm12.5-4.5q0-4.7 1.8-8.3 1.8-3.7 5.2-5.8 3.5-2 8.4-2 5 0 8.4 2 3.5 2.1 5.3 5.8 1.8 3.6 1.8 8.3v0.6q0 4.7-1.8 8.4-1.8 3.6-5.2 5.7-3.5 2-8.4 2-4.9 0-8.4-2-3.5-2.1-5.3-5.7-1.8-3.7-1.8-8.4zm10.5 0.6q0 3.7 1.1 5.7 1.1 2 3.9 2 2.7 0 3.8-2 1.1-2 1.1-5.7v-0.6q0-3.5-1.1-5.6-1.1-2-3.9-2-2.7 0-3.8 2-1.1 2.1-1.1 5.6zm38.7-27.1q5.8 0 10.3 2.6 4.5 2.7 7.1 7.4 2.6 4.6 2.6 10.5v1.6q0 5.9-2.6 10.6-2.5 4.7-7 7.3-4.5 2.7-10.1 2.7h-9.6-4.6v-42.7h10.9zm8.7 22.1v-1.6q0-5.8-2.2-8.7-2.2-3-6.5-3h-3.1v25h3.3q4.1 0 6.3-2.9 2.2-2.9 2.2-8.8zm32.8-11.7q1.7 0 2.8 0.3l-0.2 10.3-0.8-0.1q-1.7-0.1-2.5-0.1-2.4 0-3.8 0.6-1.4 0.6-2.1 1.9v19.4h-10.5v-31.7h9.8l0.4 4.1q1.2-2.3 2.9-3.5 1.8-1.2 4-1.2zm11.7-12.9q1.7 0 3 0.7 1.3 0.7 2 1.9 0.8 1.2 0.8 2.7 0 1.6-0.7 2.8-0.8 1.2-2.1 1.8-1.3 0.7-3 0.7-1.7 0-3-0.7-1.3-0.6-2.1-1.8-0.7-1.2-0.7-2.8 0-1.5 0.7-2.7 0.8-1.2 2.1-1.9 1.3-0.7 3-0.7zm5.3 45.2h-10.5v-31.7h10.5zm23.3-31.7h11.1l-10.2 31.7h-6.5-4.4l-10.2-31.7h11.1l4.5 19zm42.8 14.9v4.5h-19.2q0.6 2.1 2.3 3.2 1.7 1.2 4.2 1.2 2.1 0 4-0.7 1.9-0.7 3.2-2.3l4.6 6.1q-1 1.4-2.9 2.7-1.8 1.2-4.3 1.9-2.5 0.8-5.3 0.8-5.1 0-8.9-2.1-3.8-2.1-5.8-5.7-1.9-3.5-1.9-7.6v-1.1q0-4.6 1.7-8.3 1.7-3.7 5.1-5.9 3.5-2.2 8.7-2.2 4.4 0 7.7 1.9 3.3 1.8 5.1 5.3 1.7 3.5 1.7 8.3zm-10.2-3q0.1-4-4.4-4-2.2 0-3.3 1.3-1.1 1.3-1.4 3.5h9.1zm32.9-12.4q4.6 0 7.3 2.9 2.6 2.9 2.6 9.7v19.6h-10.6v-19.7q0-1.7-0.5-2.6-0.5-0.9-1.4-1.2-0.8-0.3-2.3-0.3-2.6 0-3.8 1.8v22h-10.5v-31.7h9.8l0.4 3.7q1.6-2.1 3.9-3.2 2.2-1 5.1-1z"/>
    <g id="icon" transform="translate(-122 -90)">
        <g id="light" fill="#9cf6b2" transform="translate(158.851 90)">
            <rect width="54" height="108" opacity="0.2"/>
            <rect width="54" height="94" transform="translate(0 14)" opacity="0.3"/>
            <rect width="54" height="81" transform="translate(0 27)" opacity="0.4"/>
            <rect width="54" height="67" transform="translate(0 41)" opacity="0.5"/>
            <rect width="54" height="54" transform="translate(0 54)" opacity="0.6"/>
            <rect width="54" height="40" transform="translate(0 68)" opacity="0.7"/>
        </g>
        <g id="plant" transform="translate(122 136.029)">
            <g id="lotus" fill="#7ED321">
                <path d="M40.368,79.178c19.1,6.075,28.8,29.183,28.8,29.183S47.9,121.621,28.8,115.546,0,86.363,0,86.363,21.267,73.1,40.368,79.178Z" transform="translate(0 -35.778)"/>
                <path d="M84.645,43.975C96.41,60.2,90.5,84.557,90.5,84.557S65.514,82.6,53.748,66.376s-5.855-40.582-5.855-40.582S72.88,27.748,84.645,43.975Z" transform="translate(-24.125 -11.974)"/>
                <path d="M156.8,79.178c-19.1,6.075-28.8,29.183-28.8,29.183s21.267,13.26,40.368,7.186,28.8-29.183,28.8-29.183S175.9,73.1,156.8,79.178Z" transform="translate(-69.169 -35.778)"/>
                <path d="M132.592,43.975c-11.765,16.227-5.855,40.582-5.855,40.582s24.986-1.953,36.752-18.18,5.855-40.582,5.855-40.582-24.986,1.954-36.752,18.181Z" transform="translate(-65.112 -11.974)"/>
                <path d="M130.852,36.511c0,20.043-19.082,36.291-19.082,36.291S92.689,56.554,92.689,36.511,111.771.219,111.771.219,130.852,16.468,130.852,36.511Z" transform="translate(-47.771 -0.219)"/>
            </g>
            <g id="tints" fill="#5c835a">
                <path d="M40.368,79.178c19.1,6.075,28.8,29.183,28.8,29.183S47.9,121.621,28.8,115.546,0,86.363,0,86.363,21.267,73.1,40.368,79.178Z" transform="translate(0 -35.778)" opacity="0.5"/>
                <path d="M84.645,43.975C96.41,60.2,90.5,84.557,90.5,84.557S65.514,82.6,53.748,66.376s-5.855-40.582-5.855-40.582S72.88,27.748,84.645,43.975Z" transform="translate(-24.125 -11.974)" opacity="0.4"/>
                <path d="M156.8,79.178c-19.1,6.075-28.8,29.183-28.8,29.183s21.267,13.26,40.368,7.186,28.8-29.183,28.8-29.183S175.9,73.1,156.8,79.178Z" transform="translate(-69.169 -35.778)" opacity="0.1"/>
                <path d="M132.592,43.975c-11.765,16.227-5.855,40.582-5.855,40.582s24.986-1.953,36.752-18.18,5.855-40.582,5.855-40.582-24.986,1.954-36.752,18.181Z" transform="translate(-65.112 -11.974)" opacity="0.2"/>
                <path d="M130.852,36.511c0,20.043-19.082,36.291-19.082,36.291S92.689,56.554,92.689,36.511,111.771.219,111.771.219,130.852,16.468,130.852,36.511Z" transform="translate(-47.771 -0.219)" opacity="0.3"/>
            </g>
        </g>
    </g>
</svg>