<svg viewBox="0 0 500 500" xmlns="http://www.w3.org/2000/svg">
    <g id="light" fill="#9cf6b2" transform="matrix(1.828348, 0, 0, 1.828348, 158.58255, 17.086609)">
        <rect opacity=".2" x="0" y="0" width="100" height="200"/>
        <rect opacity=".3" x="0" y="25" width="100" height="175"/>
        <rect opacity=".4" x="0" y="50" width="100" height="150"/>
        <rect opacity=".5" x="0" y="75" width="100" height="125"/>
        <rect opacity=".6" x="0" y="100" width="100" height="100"/>
        <rect opacity=".7" x="0" y="125" width="100" height="75"/>
    </g>
    <g id="plant" transform="matrix(1.828348, 0, 0, 1.828348, 15.971473, 207.234741)">
        <g id="lotus" fill="#7ED321">
            <path d="M74.702 80.532c35.346 11.242 53.298 54.004 53.298 54.004c0 0 -39.356 24.538 -74.702 13.297c-35.346 -11.24 -53.298 -54.004 -53.298 -54.004c0 0 39.355 -24.537 74.702 -13.296z"/>
            <path d="M117.166 59.438c21.772 30.028 10.834 75.098 10.834 75.098c0 0 -46.237 -3.614 -68.01 -33.643c-21.772 -30.028 -10.834 -75.099 -10.834 -75.099c0 0 46.238 3.616 68.01 33.644z"/>
            <path d="M181.298 80.532c-35.346 11.242 -53.298 54.004 -53.298 54.004c0 0 39.356 24.538 74.702 13.297c35.346 -11.24 53.298 -54.004 53.298 -54.004c0 0 -39.356 -24.537 -74.702 -13.296z"/>
            <path d="M138.834 59.438c-21.772 30.028 -10.834 75.098 -10.834 75.098c0 0 46.238 -3.614 68.01 -33.643c21.772 -30.028 10.834 -75.099 10.834 -75.099c0 0 -46.238 3.616 -68.01 33.644z"/>
            <path d="M163.311 67.378c0 37.09 -35.311 67.158 -35.311 67.158c0 0 -35.311 -30.067 -35.311 -67.158c0 -37.09 35.311 -67.159 35.311 -67.159c0 0 35.311 30.069 35.311 67.159z"/>
        </g>
        <g id="tints" fill="#5c835a">
            <path d="M74.702 80.532c35.346 11.242 53.298 54.004 53.298 54.004c0 0 -39.356 24.538 -74.702 13.297c-35.346 -11.24 -53.298 -54.004 -53.298 -54.004c0 0 39.355 -24.537 74.702 -13.296z" id="shape.accent" opacity=".5"/>
            <path d="M117.166 59.438c21.772 30.028 10.834 75.098 10.834 75.098c0 0 -46.237 -3.614 -68.01 -33.643c-21.772 -30.028 -10.834 -75.099 -10.834 -75.099c0 0 46.238 3.616 68.01 33.644z" id="shape.accent" opacity=".4"/>
            <path d="M181.298 80.532c-35.346 11.242 -53.298 54.004 -53.298 54.004c0 0 39.356 24.538 74.702 13.297c35.346 -11.24 53.298 -54.004 53.298 -54.004c0 0 -39.356 -24.537 -74.702 -13.296z" id="shape.accent" opacity=".1"/>
            <path d="M138.834 59.438c-21.772 30.028 -10.834 75.098 -10.834 75.098c0 0 46.238 -3.614 68.01 -33.643c21.772 -30.028 10.834 -75.099 10.834 -75.099c0 0 -46.238 3.616 -68.01 33.644z" id="shape.accent" opacity=".2"/>
            <path d="M163.311 67.378c0 37.09 -35.311 67.158 -35.311 67.158c0 0 -35.311 -30.067 -35.311 -67.158c0 -37.09 35.311 -67.159 35.311 -67.159c0 0 35.311 30.069 35.311 67.159z" id="shape.accent" opacity=".3"/>
        </g>
    </g>
</svg>